<svg width="32" height="32" viewBox="0 0 32 32" fill="none" xmlns="http://www.w3.org/2000/svg">
<rect width="32" height="32" rx="6" fill="#1E88E5"/>
<path d="M16 6C12.13 6 9 9.13 9 13C9 15.38 10.19 17.47 12 18.74V24C12 24.55 12.45 25 13 25H19C19.55 25 20 24.55 20 24V18.74C21.81 17.47 23 15.38 23 13C23 9.13 19.87 6 16 6ZM13 23V21H19V23H13ZM18.5 17.58L17.5 18.29V19H14.5V18.29L13.5 17.58C12.27 16.69 11.5 15.26 11.5 13.5C11.5 10.74 13.74 8.5 16.5 8.5C19.26 8.5 21.5 10.74 21.5 13.5C21.5 15.26 20.73 16.69 18.5 17.58Z" fill="white"/>
<circle cx="16" cy="13" r="2.5" fill="white"/>
</svg>
